<?xml version="1.0" encoding="UTF-8"?><svg xmlns="http://www.w3.org/2000/svg" xmlns:xlink="http://www.w3.org/1999/xlink" fill-opacity="1" color-rendering="auto" color-interpolation="auto" text-rendering="auto" stroke="black" stroke-linecap="square" width="526" stroke-miterlimit="10" shape-rendering="auto" stroke-opacity="1" fill="black" stroke-dasharray="none" font-weight="normal" stroke-width="1" height="571" font-family="'Dialog'" font-style="normal" stroke-linejoin="miter" font-size="12px" stroke-dashoffset="0" image-rendering="auto">
  <!--Generated by ySVG 2.5-->
  <defs id="genericDefs"/>
  <g>
    <defs id="defs1">
      <clipPath clipPathUnits="userSpaceOnUse" id="clipPath1">
        <path d="M0 0 L526 0 L526 571 L0 571 L0 0 Z"/>
      </clipPath>
      <clipPath clipPathUnits="userSpaceOnUse" id="clipPath2">
        <path d="M265 120 L791 120 L791 691 L265 691 L265 120 Z"/>
      </clipPath>
    </defs>
    <g fill="white" text-rendering="geometricPrecision" shape-rendering="geometricPrecision" transform="translate(-265,-120)" stroke="white">
      <rect x="265" width="526" height="571" y="120" clip-path="url(#clipPath2)" stroke="none"/>
    </g>
    <g fill="rgb(245,245,245)" text-rendering="geometricPrecision" shape-rendering="geometricPrecision" transform="matrix(1,0,0,1,-265,-120)" stroke="rgb(245,245,245)">
      <rect x="452.0896" y="217.5211" clip-path="url(#clipPath2)" width="322.9312" rx="4" ry="4" height="198.0069" stroke="none"/>
      <rect x="452.0896" y="217.5211" clip-path="url(#clipPath2)" fill="rgb(235,235,235)" width="322.9312" height="22.3765" stroke="none"/>
    </g>
    <g font-size="15px" stroke-linecap="butt" transform="matrix(1,0,0,1,-265,-120)" text-rendering="geometricPrecision" font-family="sans-serif" shape-rendering="geometricPrecision" stroke-miterlimit="1.45">
      <text x="694.6297" xml:space="preserve" y="234.6017" clip-path="url(#clipPath2)" stroke="none">app.module</text>
      <rect x="452.0896" y="217.5211" clip-path="url(#clipPath2)" fill="none" width="322.9312" stroke-dasharray="6,2" rx="4" ry="4" height="198.0069"/>
    </g>
    <g fill="rgb(255,204,0)" text-rendering="geometricPrecision" shape-rendering="geometricPrecision" transform="matrix(1,0,0,1,-265,-120)" stroke="rgb(255,204,0)">
      <rect x="467.0896" width="115.4544" height="39.36" y="254.8976" clip-path="url(#clipPath2)" stroke="none"/>
    </g>
    <g text-rendering="geometricPrecision" stroke-miterlimit="1.45" shape-rendering="geometricPrecision" transform="matrix(1,0,0,1,-265,-120)" stroke-linecap="butt">
      <rect fill="none" x="467.0896" width="115.4544" height="39.36" y="254.8976" clip-path="url(#clipPath2)"/>
      <text x="483.4525" xml:space="preserve" y="279.2915" clip-path="url(#clipPath2)" font-family="sans-serif" stroke="none">app.component</text>
    </g>
    <g fill="rgb(255,204,0)" text-rendering="geometricPrecision" shape-rendering="geometricPrecision" transform="matrix(1,0,0,1,-265,-120)" stroke="rgb(255,204,0)">
      <rect x="467.0896" width="118.4736" height="30" y="370.528" clip-path="url(#clipPath2)" stroke="none"/>
    </g>
    <g text-rendering="geometricPrecision" stroke-miterlimit="1.45" shape-rendering="geometricPrecision" transform="matrix(1,0,0,1,-265,-120)" stroke-linecap="butt">
      <rect fill="none" x="467.0896" width="118.4736" height="30" y="370.528" clip-path="url(#clipPath2)"/>
      <text x="483.2951" xml:space="preserve" y="390.2419" clip-path="url(#clipPath2)" font-family="sans-serif" stroke="none">todo.component</text>
    </g>
    <g fill="rgb(153,204,0)" text-rendering="geometricPrecision" shape-rendering="geometricPrecision" transform="matrix(1,0,0,1,-265,-120)" stroke="rgb(153,204,0)">
      <rect x="643.2176" width="98.4032" height="30" y="327.52" clip-path="url(#clipPath2)" stroke="none"/>
    </g>
    <g text-rendering="geometricPrecision" stroke-miterlimit="1.45" shape-rendering="geometricPrecision" transform="matrix(1,0,0,1,-265,-120)" stroke-linecap="butt">
      <rect fill="none" x="643.2176" width="98.4032" height="30" y="327.52" clip-path="url(#clipPath2)"/>
      <text x="652.7336" xml:space="preserve" y="347.2339" clip-path="url(#clipPath2)" font-family="sans-serif" stroke="none">webapi.service</text>
    </g>
    <g fill="rgb(0,204,255)" text-rendering="geometricPrecision" shape-rendering="geometricPrecision" transform="matrix(1,0,0,1,-265,-120)" stroke="rgb(0,204,255)">
      <rect x="570.4112" width="67.888" height="30" y="140" clip-path="url(#clipPath2)" stroke="none"/>
    </g>
    <g text-rendering="geometricPrecision" stroke-miterlimit="1.45" shape-rendering="geometricPrecision" transform="matrix(1,0,0,1,-265,-120)" stroke-linecap="butt">
      <rect fill="none" x="570.4112" width="67.888" height="30" y="140" clip-path="url(#clipPath2)"/>
      <text x="585.0164" xml:space="preserve" y="159.7139" clip-path="url(#clipPath2)" font-family="sans-serif" stroke="none">main.ts</text>
      <path fill="none" d="M525.0846 294.2576 L526.0135 362.5287" clip-path="url(#clipPath2)"/>
      <path d="M526.1223 370.528 L530.9586 358.4611 L525.9999 361.5288 L520.9595 358.5971 Z" clip-path="url(#clipPath2)" stroke="none"/>
      <text x="515.7792" xml:space="preserve" y="350.6034" clip-path="url(#clipPath2)" font-family="sans-serif" stroke="none">0..n</text>
      <path fill="none" d="M573.364 294.2576 L648.0027 324.5145" clip-path="url(#clipPath2)"/>
      <path d="M655.4167 327.52 L646.1742 318.3781 L647.076 324.1389 L642.4174 327.6455 Z" clip-path="url(#clipPath2)" stroke="none"/>
      <path fill="none" d="M605.2095 170 L607.4625 209.5547" clip-path="url(#clipPath2)"/>
      <path d="M607.9174 217.5418 L612.2269 205.2769 L607.4056 208.5564 L602.2431 205.8456 Z" clip-path="url(#clipPath2)" stroke="none"/>
    </g>
    <g fill="rgb(245,245,245)" text-rendering="geometricPrecision" shape-rendering="geometricPrecision" transform="matrix(1,0,0,1,-265,-120)" stroke="rgb(245,245,245)">
      <rect x="532.6352" y="489.5123" clip-path="url(#clipPath2)" width="194.0032" rx="4" ry="4" height="185.5765" stroke="none"/>
      <rect x="532.6352" y="489.5123" clip-path="url(#clipPath2)" fill="rgb(235,235,235)" width="194.0032" height="22.3765" stroke="none"/>
    </g>
    <g font-size="15px" stroke-linecap="butt" transform="matrix(1,0,0,1,-265,-120)" text-rendering="geometricPrecision" font-family="sans-serif" shape-rendering="geometricPrecision" stroke-miterlimit="1.45">
      <text x="609.5823" xml:space="preserve" y="506.5929" clip-path="url(#clipPath2)" stroke="none">HttpClientModule</text>
      <rect x="532.6352" y="489.5123" clip-path="url(#clipPath2)" fill="none" width="194.0032" stroke-dasharray="6,2" rx="4" ry="4" height="185.5765"/>
    </g>
    <g fill="rgb(153,204,0)" text-rendering="geometricPrecision" shape-rendering="geometricPrecision" transform="matrix(1,0,0,1,-265,-120)" stroke="rgb(153,204,0)">
      <rect x="602.8352" width="108.8032" height="30" y="586.8888" clip-path="url(#clipPath2)" stroke="none"/>
    </g>
    <g text-rendering="geometricPrecision" stroke-miterlimit="1.45" shape-rendering="geometricPrecision" transform="matrix(1,0,0,1,-265,-120)" stroke-linecap="butt">
      <rect fill="none" x="602.8352" width="108.8032" height="30" y="586.8888" clip-path="url(#clipPath2)"/>
      <text x="610.2212" xml:space="preserve" y="606.6027" clip-path="url(#clipPath2)" font-family="sans-serif" stroke="none">HttpClient.service</text>
    </g>
    <g fill="rgb(204,153,255)" text-rendering="geometricPrecision" shape-rendering="geometricPrecision" transform="matrix(1,0,0,1,-265,-120)" stroke="rgb(204,153,255)">
      <rect x="280.6512" width="115.4544" height="49.2" y="135.552" clip-path="url(#clipPath2)" stroke="none"/>
    </g>
    <g text-rendering="geometricPrecision" stroke-miterlimit="1.45" shape-rendering="geometricPrecision" transform="matrix(1,0,0,1,-265,-120)" stroke-linecap="butt">
      <rect fill="none" x="280.6512" width="115.4544" height="49.2" y="135.552" clip-path="url(#clipPath2)"/>
      <text x="311.0327" xml:space="preserve" y="164.8659" clip-path="url(#clipPath2)" font-family="sans-serif" stroke="none">index.html</text>
      <path fill="none" d="M617.4059 415.5472 L619.9716 481.5245" clip-path="url(#clipPath2)"/>
      <path d="M620.2825 489.5185 L624.8124 477.3333 L619.9327 480.5253 L614.8199 477.7218 Z" clip-path="url(#clipPath2)" stroke="none"/>
      <path fill="none" d="M690.3845 357.52 L660.3468 578.9614" clip-path="url(#clipPath2)"/>
      <path d="M659.2715 586.8889 L665.8391 575.6698 L660.4812 577.9705 L655.9299 574.3257 Z" clip-path="url(#clipPath2)" stroke="none"/>
    </g>
  </g>
</svg>
